# xmcd
#
# Track frame offsets:
#	150
#	18417
#	35748
#	60274
#	89689
#	107881
#	134090
#	149233
#	163501
#	187877
#	192729
#	207191
#	221673
#	235564
#	252241
#
# Disc length: 3485 seconds
#
# Revision: 0
# Processed by: cddbd v1.5.2PL0 Copyright (c) Steve Scherf et al.
# Submitted via: audiograbber 1.83.01
#
DISCID=e50d9b0f
DTITLE=Jerry Douglas - Best Of The Sugar Hill Years
DYEAR=2007
DGENRE=Americana
TTITLE0=The Wild Rumpus
TTITLE1=Takarasaka
TTITLE2=Senia's Lament
TTITLE3=We Hide And Seek
TTITLE4=Lullaby Of The Leaves
TTITLE5=A New Day Medly
TTITLE6=Cave Bop
TTITLE7=Hey Joe
TTITLE8=Birdland
TTITLE9=Monkey Let The Hogs Out
TTITLE10=Ride The Wild Turkey
TTITLE11=A Tribute To Peador O'Donnell
TTITLE12=Things In Life
TTITLE13=Like It Is
TTITLE14=In The Sweet By And By
EXTD=Americana Master Series
EXTT0=from the album Lookout for Hope
EXTT1=from the album Restless on the Farm
EXTT2=from the album Lookout for Hope
EXTT3=from the album Slide Rule
EXTT4=from the album Yonder
EXTT5=from the album Lookout for Hope
EXTT6=from the album Lookout for Hope
EXTT7=from the album Slide Rule
EXTT8=from the album The Great Dobro Sessions
EXTT9=from the album Lookout for Hope
EXTT10=from the album Slide Rule
EXTT11=from the album Restless on the Farm
EXTT12=from the album Restless on the Farm
EXTT13=from the album Restless on the Farm
EXTT14=from the album Lookout for Hope
PLAYORDER=
